<svg id="Layer_1" data-name="Layer 1" xmlns="http://www.w3.org/2000/svg" viewBox="0 0 505.19 134.18"><defs><style>.cls-1{fill:#7b868c;}.cls-2{fill:#0c3b60;}</style></defs><path class="cls-1" d="M313.59,100a7.26,7.26,0,0,1-4-1.36,1,1,0,0,0-.27.66c0,.5-.12.7-.58.7s-.66-.28-.66-.66V94.94c0-.39.11-.7.62-.7s.62.39.62.7c0,2.4,2.44,3.88,4.1,3.88,1.82,0,3.53-.62,3.53-2.76,0-1.35-1-2.13-3.1-2.75l-1.55-.46c-2-.62-4.42-1.9-4.42-4.69,0-3.1,2.64-4.61,5.31-4.61a5.64,5.64,0,0,1,3.29,1,.33.33,0,0,0,.24-.35c0-.35.11-.7.58-.7s.62.31.62.66v3.84c0,.31-.12.65-.59.65s-.61-.38-.61-.65a3.33,3.33,0,0,0-3.53-3.3c-1.66,0-3.29.78-3.29,2.6,0,1.28,1.08,2.13,2.4,2.48l1.82.46c3,.82,4.92,2.37,4.92,5C319,98.51,316.38,100,313.59,100Z" transform="translate(-1.04 1)"/><path class="cls-1" d="M336.71,98.47a.63.63,0,0,1,.59.69.6.6,0,0,1-.59.66,23.66,23.66,0,0,0-3.75-.19h-.2a23.5,23.5,0,0,0-3.75.19.6.6,0,0,1-.59-.66.63.63,0,0,1,.59-.69c.38,0,.61,0,2.47,0V85.06c-1.86,0-2.09,0-2.47,0a.6.6,0,0,1-.59-.66.63.63,0,0,1,.59-.69,23.5,23.5,0,0,0,3.75.19h.2a23.66,23.66,0,0,0,3.75-.19.63.63,0,0,1,.59.69.6.6,0,0,1-.59.66c-.38,0-.62,0-2.48,0V98.51C336.09,98.51,336.33,98.47,336.71,98.47Z" transform="translate(-1.04 1)"/><path class="cls-1" d="M351.05,98.51c1.59,0,1.78,0,2.17,0a.62.62,0,0,1,.58.69.59.59,0,0,1-.58.66,15.7,15.7,0,0,0-2.79-.19h-.08a16.38,16.38,0,0,0-2.83.19.61.61,0,0,1-.58-.66.65.65,0,0,1,.58-.69c.39,0,.58,0,2.17,0V85.06c-1.59,0-1.78,0-2.17,0a.61.61,0,0,1-.58-.66.65.65,0,0,1,.58-.69,16.38,16.38,0,0,0,2.83.19h.35c.39,0,.81,0,1.08,0,.47,0,.7.2,1.24,1L360.07,95V85.06c-1.62,0-1.78,0-2.17,0a.59.59,0,0,1-.58-.66.62.62,0,0,1,.58-.69,16.26,16.26,0,0,0,2.79.19h.08a16.38,16.38,0,0,0,2.83-.19.65.65,0,0,1,.58.69.61.61,0,0,1-.58.66c-.39,0-.58,0-2.17,0V99.2c0,.7-.35.89-.66.89s-.54-.15-.85-.54l-8.87-12.74Z" transform="translate(-1.04 1)"/><path class="cls-1" d="M385.6,99.9c-.54,0-.62-.46-.62-.74a.73.73,0,0,0-.35-.62,5.46,5.46,0,0,1-4.18,1.48c-4,0-7.44-3.3-7.44-8.22s3.41-8.25,7.44-8.25a5.84,5.84,0,0,1,4.18,1.51.81.81,0,0,0,.35-.62c0-.34,0-.73.62-.73s.62.27.62.7v4.8c0,.31,0,.73-.62.73s-.62-.42-.62-.73a4.31,4.31,0,0,0-4.3-4.38c-2.94,0-4.57,1.86-4.57,7s1.63,7,4.57,7a4.32,4.32,0,0,0,4.3-4.42c0-.23,0-.74.62-.74s.62.43.62.74V99.2C386.22,99.59,386.18,99.9,385.6,99.9Z" transform="translate(-1.04 1)"/><path class="cls-1" d="M403.38,90.87A1.73,1.73,0,0,0,405.09,89c0-.35.08-.66.5-.66s.43.31.43.66-.08.89-.08,2.24v.39c0,1.35.08,1.86.08,2.25s0,.65-.43.65-.5-.31-.5-.65A1.74,1.74,0,0,0,403.38,92h-1.31v6.54h3.64c2.25,0,2.83-.73,2.83-3.48a.59.59,0,0,1,.65-.58.56.56,0,0,1,.62.58c0,.38-.15,1.43-.15,3V99.2a.64.64,0,0,1-.58.66c-.35,0-1.55-.15-2.17-.15l-6.31-.08a23.74,23.74,0,0,0-3.76.19.59.59,0,0,1-.58-.66.62.62,0,0,1,.58-.69c.38,0,.62,0,2.48,0V85.06c-1.86,0-2.1,0-2.48,0a.59.59,0,0,1-.58-.66.62.62,0,0,1,.58-.69,23.74,23.74,0,0,0,3.76.19l5.61,0c.62,0,1.82-.19,2.17-.19a.63.63,0,0,1,.58.7v1c0,1.59.16,2.67.16,3.06a.57.57,0,0,1-.58.58.61.61,0,0,1-.66-.58c0-2.79-.62-3.49-2.83-3.49h-3v5.85Z" transform="translate(-1.04 1)"/><path class="cls-1" d="M441.81,98.47a.65.65,0,0,1,.58.69.61.61,0,0,1-.58.66,24,24,0,0,0-3.79-.19h-.16a23.5,23.5,0,0,0-3.75.19.59.59,0,0,1-.59-.66.63.63,0,0,1,.59-.69c.38,0,.61,0,2.47,0V85.06c-1.86,0-2.59.12-3,.12a.69.69,0,0,1,0-1.36c.39,0,1.12.08,3,.08.62,0,1.82-.19,2.17-.19a.65.65,0,0,1,.58.7v14.1C441.19,98.51,441.43,98.47,441.81,98.47Z" transform="translate(-1.04 1)"/><path class="cls-1" d="M455.53,100.09c-.93.16-1.24-.85-.2-1.08,2-.43,4.69-2.91,5.58-7.09a3.49,3.49,0,0,1-2.63,1c-2.6,0-5.19-1.63-5.19-4.69,0-2.6,2.44-4.69,5.42-4.69,2.21,0,5.42,1.28,5.42,6.43C463.93,94.09,460,99.28,455.53,100.09Zm3-15.37c-2.44,0-2.75,1.89-2.75,3.56,0,2.09.93,3.52,2.52,3.52a2.85,2.85,0,0,0,3-2.94C461.26,86.81,460.76,84.72,458.51,84.72Z" transform="translate(-1.04 1)"/><path class="cls-1" d="M479.2,100c-2.21,0-5.43-1.24-5.43-6.43,0-4.07,3.92-9.3,8.41-10.08.93-.19,1.24.82.19,1-2,.46-4.68,2.91-5.58,7.09a3.67,3.67,0,0,1,2.64-1c2.59,0,5.19,1.59,5.19,4.65C484.62,97.92,482.18,100,479.2,100Zm.23-8.22a2.83,2.83,0,0,0-3,3c0,2,.46,4.1,2.75,4.1,2.44,0,2.75-1.86,2.75-3.52C482,93.2,481,91.8,479.43,91.8Z" transform="translate(-1.04 1)"/><path class="cls-1" d="M499.81,100c-2.21,0-5.43-1.24-5.43-6.43,0-4.07,3.92-9.3,8.41-10.08.93-.19,1.24.82.19,1-2,.46-4.68,2.91-5.58,7.09a3.67,3.67,0,0,1,2.64-1c2.59,0,5.19,1.59,5.19,4.65C505.23,97.92,502.79,100,499.81,100ZM500,91.8a2.83,2.83,0,0,0-3,3c0,2,.46,4.1,2.75,4.1s2.75-1.86,2.75-3.52C502.56,93.2,501.63,91.8,500,91.8Z" transform="translate(-1.04 1)"/><path class="cls-2" d="M40.56,58.51c3,1.35,6.48.36,6.48,2,0,.54-.63,1-1.8,1-.72,0-4.86-.45-12.6-.45s-12,.45-12.7.45c-1.17,0-1.71-.45-1.71-1,0-1.62,3.51-.63,6.48-2,2.8-1.17,3.25-3.25,3.25-7.3V5.84c0-2.52-1.44-2.79-5.14-2.79h-3.6c-7.83,0-12.51.36-14.76,3.6S3.2,14.21,1.85,14.21c-.72,0-.81-.54-.81-1.53V2.51C1,.89,1.67.44,3.65.44c1.53,0,11.16.63,29,.63S60.1.44,61.63.44c2,0,2.52.45,2.52,2.07V12.68c0,1,0,1.53-.72,1.53-1.35,0-.54-4.41-2.7-7.56C58.3,3.05,53,3.05,44,3.05H42.45c-3.78,0-5.13.18-5.13,2.79V51.21C37.32,55.26,37.77,57.34,40.56,58.51Z" transform="translate(-1.04 1)"/><path class="cls-2" d="M95-1a20.12,20.12,0,0,1,14.8,6.34,23.09,23.09,0,0,1,6.61,15.56A23.61,23.61,0,0,1,110,37a19.61,19.61,0,0,1-15.26,6.72c-12.68,0-22.15-9.32-22.15-22.38A22.08,22.08,0,0,1,95-1Zm-.73,42.75c8.63,0,13.23-7,13.23-20.66,0-13.16-5-20.26-13.23-20.26-7.36,0-12.78,7.58-12.78,20.65S86.2,41.75,94.29,41.75Z" transform="translate(-1.04 1)"/><path class="cls-2" d="M132.65,6.47c-.9-2.07-2.43-2.79-4.86-3.33-2.61-.54-4.23-.18-4.23-1.44,0-.54.72-1,1.89-1,2,0,4.68.36,8,.36,3.78,0,5.85-.18,6.39-.18,1.8,0,2.25.54,3,2.25l18.73,44.11L180.81,2.42A2.34,2.34,0,0,1,183.33.89c1,0,2.25.18,4,.18,3.78,0,6.94-.27,9.55-.27,1.44,0,2.16.18,2.16,1,0,1.53-3.42.27-6.57,2.43-1.81,1.26-2.79,3.87-2.79,7.92V51.21c0,3.88.36,6,2.79,7.3s5.49.45,5.49,2c0,.63-.54,1-1.53,1-.63,0-4.41-.45-11.17-.45-7.29,0-11.25.45-12,.45-1.08,0-1.62-.36-1.62-1,0-1.62,3.33-.72,5.85-2s3-3.33,3-7.3V9.53l-21.33,50c-.45,1-1,1.53-1.26,1.53s-.81-.45-1.08-1.08L135.44,9.08V49.77c0,4.59.36,7.12,3.69,8.83,2.43,1.26,4.86.45,4.86,1.89,0,.63-.72,1-2,1s-3.78-.36-7.29-.36c-2.52,0-4.95.36-7.29.36s-3.33-.27-3.33-1.08c0-1.35,3.15-.72,5.49-2.07,2.7-1.53,3.06-4,3.06-8.65Z" transform="translate(-1.04 1)"/><path class="cls-2" d="M271.46,49.23a15,15,0,0,0-1.17,5.13,4.32,4.32,0,0,0,3,4.51c2,.81,4,.45,4,1.8,0,.45-.54.81-1.71.81s-4.05-.54-8.37-.54c-3.42,0-6,.36-7.57.36s-2.25-.36-2.25-1c0-1.35,2.43-.72,5.41-2.25,2.34-1.17,4-4.24,6.12-9.19L288.92,1c.45-1.08.9-1.71,1.62-1.71s1.17.63,1.71,1.89l19.9,50.14c1.53,3.79,3,6.22,5.4,7.21s5,.54,5,1.89c0,.54-.63.9-1.8.9-2.7,0-6.57-.36-11.43-.36-3.6,0-7.2.54-10.89.54-1.53,0-2.35-.36-2.35-1s.9-.9,2.62-1.17c3.42-.45,4.95-1.35,4.95-3.24a18.15,18.15,0,0,0-1.35-5.77l-4.14-11H275.42ZM297.3,36.72l-10.09-26-10.8,26Z" transform="translate(-1.04 1)"/><path class="cls-2" d="M336,6.47c-.9-2.07-2.43-2.79-4.86-3.33-2.61-.54-4.23-.18-4.23-1.44,0-.54.72-1,1.89-1,2,0,4.68.36,8,.36,3.78,0,5.85-.18,6.39-.18,1.8,0,2.25.54,3,2.25l18.73,44.11L384.18,2.42A2.35,2.35,0,0,1,386.71.89c1,0,2.25.18,4.05.18,3.78,0,6.93-.27,9.54-.27,1.44,0,2.16.18,2.16,1,0,1.53-3.42.27-6.57,2.43-1.8,1.26-2.79,3.87-2.79,7.92V51.21c0,3.88.36,6,2.79,7.3s5.49.45,5.49,2c0,.63-.54,1-1.53,1-.63,0-4.41-.45-11.16-.45-7.3,0-11.26.45-12,.45-1.08,0-1.62-.36-1.62-1,0-1.62,3.33-.72,5.85-2s3-3.33,3-7.3V9.53l-21.34,50c-.45,1-1,1.53-1.26,1.53s-.81-.45-1.08-1.08L338.81,9.08V49.77c0,4.59.36,7.12,3.69,8.83,2.43,1.26,4.86.45,4.86,1.89,0,.63-.72,1-2,1s-3.78-.36-7.29-.36c-2.52,0-4.95.36-7.29.36s-3.33-.27-3.33-1.08c0-1.35,3.15-.72,5.49-2.07,2.7-1.53,3.06-4,3.06-8.65Z" transform="translate(-1.04 1)"/><path class="cls-2" d="M276.57,75.43c-6.86,0-14.55,1.4-21.91,14.62-1.33-.3-1.55-.35-3-.74-1.67-.44-3.2-.86-4.61-1.26a52.35,52.35,0,0,0,4.91-22.75V10.7c0-4.32.63-6.57,3.61-7.38s5.13-.45,5.13-1.53c0-.54-.63-.81-1.62-.81-.72,0-4.69.36-11.8.36-6.84,0-10.8-.36-11.79-.36s-1.62.36-1.62.9c0,1.26,3.51.63,5.85,1.71,2.52,1.17,2.88,3.24,2.88,7.11v62a42,42,0,0,1-2.26,13.25c-.75-.27-1.46-.54-2.14-.81-13.11-5.33-21.83-4.65-27.13-1.27a9,9,0,0,0-1.34,1,15.16,15.16,0,0,0-5.33,11.46,14.51,14.51,0,0,0,1.15,5.75c0,.09.11.18.15.26a2,2,0,0,0,.12.19c1.85,3.27,6.29,6.23,13.55,6.23,9.11,0,19.2-6.13,25.71-17,1.72.5,3.59,1,5.65,1.57,1.19.31,1.13.3,2.25.56-22.66,53.39-64.38,35.22-70.71,23.55-5-9.23-4.51-20.71.85-30.43,11.82-21.44,35.84-11.73,37.75-11,1.17.42,2.27.7,2.73-.25s-.25-1.6-1.21-2.39c-1.72-1.44-27.32-16.39-42.28,10.61-6.72,12.14-10.77,49.3,30.63,49.3,26.44,0,43.37-26.8,48.65-38,10.18,1.83,16.47-.05,20.52-3.51C290.11,82.87,282.53,75.43,276.57,75.43Zm-56.34,31.28c-10.66,0-11.8-6.06-10.64-12,1.76-6.27,9.85-11.21,27.13-5.6l2.07.67C234.55,99.41,227.32,106.71,220.23,106.71Zm57.09-16.95c-2.27,1.5-6.42,3.24-16.2,1.65,5.62-11,11.8-13.17,15.1-13.17C280.85,78.24,285.24,84.52,277.32,89.76Z" transform="translate(-1.04 1)"/><path class="cls-2" d="M439.71,59c7.92,0,12.51-1.17,15.12-5.59,2.07-3.51,1.26-6.21,2.79-6.21.9,0,1,.81,1,2.7,0,2.89-.36,6-.36,9.1,0,2.25-.09,2.52-3,2.52-1.71,0-12.78-.45-33.4-.45-7.2,0-11.07.45-11.79.45-1.08,0-1.62-.36-1.62-1,0-1.62,3.33-.72,5.85-2s2.88-3.33,2.88-7.3V10.7c0-3.87-.36-5.94-2.88-7.11-2.34-1.08-5.85-.45-5.85-1.71,0-.54.54-.9,1.62-.9.9,0,5.67.36,14.13.36,6.49,0,13.78-.27,22.24-.27h2c4,0,5.4.09,5.4,2.16,0,.81-.27,2.34-.27,4.86,0,2.25.36,3.78.36,4.68s-.27,1.44-1,1.44c-1.71,0-.63-3.24-2.52-6.21-2.7-4.32-8-4.77-16.47-4.77h-.72c-6.22,0-6.76.09-6.76,4.86V28.8c7.12-.36,10.9-1.17,13.24-4.95,1.89-3.16,1.08-6.85,2.61-6.85.72,0,1.08.54,1.08,1.54,0,1.8-.45,5-.45,9.63,0,6.12.54,9.9.54,11.43,0,1.08-.45,1.62-1,1.62-1.08,0-.72-2.25-2.07-5.13-1.89-4.05-5.67-5.22-12.33-5.22h-1.63V45.81C426.47,56.17,427.37,59,439.71,59Z" transform="translate(-1.04 1)"/><path class="cls-2" d="M466.8,43.11c1.62,0,1.17,2.61,2.43,6.12,2.7,7.39,8.37,11.44,15.49,11.44,8.19,0,13.14-4.59,13.14-12.25A11.67,11.67,0,0,0,495.52,41c-3.24-4-8.82-5.94-15.94-8.91-7.83-3.33-12.24-9.27-12.24-16.48,0-9.36,7.47-16.11,17.83-16.11,7.83,0,11.61,4,13.14,4S499.66.17,501.1.17c.63,0,1.17.63,1.17,2,0,1.17-.27,3.15-.27,5.94,0,1.8.27,3.69.27,5.49s-.09,2.52-1,2.52c-1.62,0-1.26-2.16-2.79-5.58-2.61-5.67-7.11-8.82-13-8.82-7.12,0-11.35,4.32-11.35,10.17,0,6.76,5.4,8.92,13.78,12.61,12,5.31,18.27,10.35,18.27,20.52s-9,18-21.51,18c-9.37,0-14.05-4.86-15.58-4.86-1.26,0-1.44,2.7-2.61,2.7-.63,0-.9-.36-.9-1.26s.45-3.06.45-6.75c0-3.25-.27-6-.27-7.93C465.81,43.56,465.9,43.11,466.8,43.11Z" transform="translate(-1.04 1)"/><path class="cls-1" d="M113.89,55.86h-39a1.36,1.36,0,0,1,0-2.71h39.05a1.36,1.36,0,0,1,0,2.71Z" transform="translate(-1.04 1)"/></svg>